<svg width="771" height="137" viewBox="0 0 771 137" fill="none" xmlns="http://www.w3.org/2000/svg">
<rect x="161.477" y="40" width="5" height="74.4943" transform="rotate(42.6561 161.477 40)" fill="#F2F2F2"/>
<rect x="384.934" y="38.4021" width="5" height="74.4943" transform="rotate(41.5456 384.934 38.4021)" fill="#F2F2F2"/>
<rect x="570.52" y="96.3757" width="5" height="74.4943" transform="rotate(139.812 570.52 96.3757)" fill="#F2F2F2"/>
<path d="M113 0H73V40H113V0Z" fill="#B04341"/>
<path d="M83.5703 18.4141H85.1992C86.2227 18.3984 87.0273 18.1289 87.6133 17.6055C88.1992 17.082 88.4922 16.375 88.4922 15.4844C88.4922 13.4844 87.4961 12.4844 85.5039 12.4844C84.5664 12.4844 83.8164 12.7539 83.2539 13.293C82.6992 13.8242 82.4219 14.5312 82.4219 15.4141H80.2539C80.2539 14.0625 80.7461 12.9414 81.7305 12.0508C82.7227 11.1523 83.9805 10.7031 85.5039 10.7031C87.1133 10.7031 88.375 11.1289 89.2891 11.9805C90.2031 12.832 90.6602 14.0156 90.6602 15.5313C90.6602 16.2734 90.418 16.9922 89.9336 17.6875C89.457 18.3828 88.8047 18.9023 87.9766 19.2461C88.9141 19.543 89.6367 20.0352 90.1445 20.7227C90.6602 21.4102 90.918 22.25 90.918 23.2422C90.918 24.7734 90.418 25.9883 89.418 26.8867C88.418 27.7852 87.1172 28.2344 85.5156 28.2344C83.9141 28.2344 82.6094 27.8008 81.6016 26.9336C80.6016 26.0664 80.1016 24.9219 80.1016 23.5H82.2812C82.2812 24.3984 82.5742 25.1172 83.1602 25.6562C83.7461 26.1953 84.5312 26.4648 85.5156 26.4648C86.5625 26.4648 87.3633 26.1914 87.918 25.6445C88.4727 25.0977 88.75 24.3125 88.75 23.2891C88.75 22.2969 88.4453 21.5352 87.8359 21.0039C87.2266 20.4727 86.3477 20.1992 85.1992 20.1836H83.5703V18.4141ZM105.074 28H93.8945V26.4414L99.8008 19.8789C100.676 18.8867 101.277 18.082 101.605 17.4648C101.941 16.8398 102.109 16.1953 102.109 15.5313C102.109 14.6406 101.84 13.9102 101.301 13.3398C100.762 12.7695 100.043 12.4844 99.1445 12.4844C98.0664 12.4844 97.2266 12.793 96.625 13.4102C96.0312 14.0195 95.7344 14.8711 95.7344 15.9648L93.5664 15.9648C93.5664 14.3945 94.0703 13.125 95.0781 12.1563C96.0938 11.1875 97.4492 10.7031 99.1445 10.7031C100.73 10.7031 101.984 11.1211 102.906 11.957C103.828 12.7852 104.289 13.8906 104.289 15.2734C104.289 16.9531 103.219 18.9531 101.078 21.2734L96.5078 26.2305H105.074V28Z" fill="#F2F2F2"/>
<path d="M158 0H118V40H158V0Z" fill="#313130"/>
<path d="M132.543 28H130.363V13.5508L125.992 15.1562V13.1875L132.203 10.8555L132.543 10.8555V28ZM139.891 19.4453L140.758 10.9375H149.5V12.9414H142.598L142.082 17.5938C142.918 17.1016 143.867 16.8555 144.93 16.8555C146.484 16.8555 147.719 17.3711 148.633 18.4023C149.547 19.4258 150.004 20.8125 150.004 22.5625C150.004 24.3203 149.527 25.707 148.574 26.7227C147.629 27.7305 146.305 28.2344 144.602 28.2344C143.094 28.2344 141.863 27.8164 140.91 26.9805C139.957 26.1445 139.414 24.9883 139.281 23.5117H141.332C141.465 24.4883 141.812 25.2266 142.375 25.7266C142.938 26.2188 143.68 26.4648 144.602 26.4648C145.609 26.4648 146.398 26.1211 146.969 25.4336C147.547 24.7461 147.836 23.7969 147.836 22.5859C147.836 21.4453 147.523 20.5313 146.898 19.8438C146.281 19.1484 145.457 18.8008 144.426 18.8008C143.48 18.8008 142.738 19.0078 142.199 19.4219L141.625 19.8906L139.891 19.4453Z" fill="#F2F2F2"/>
<path d="M202.971 0H162.971V40H202.971V0Z" fill="#B04341"/>
<path d="M178.543 28H176.363V13.5508L171.992 15.1562V13.1875L178.203 10.8555L178.543 10.8555V28ZM193.203 20.5C192.75 21.0391 192.207 21.4727 191.574 21.8008C190.949 22.1289 190.262 22.293 189.512 22.293C188.527 22.293 187.668 22.0508 186.934 21.5664C186.207 21.082 185.645 20.4023 185.246 19.5273C184.848 18.6445 184.648 17.6719 184.648 16.6094C184.648 15.4688 184.863 14.4414 185.293 13.5273C185.73 12.6133 186.348 11.9141 187.145 11.4297C187.941 10.9453 188.871 10.7031 189.934 10.7031C191.621 10.7031 192.949 11.3359 193.918 12.6016C194.895 13.8594 195.383 15.5781 195.383 17.7578V18.3906C195.383 21.7109 194.727 24.1367 193.414 25.668C192.102 27.1914 190.121 27.9727 187.473 28.0117H187.051V26.1836H187.508C189.297 26.1523 190.672 25.6875 191.633 24.7891C192.594 23.8828 193.117 22.4531 193.203 20.5ZM189.863 20.5C190.59 20.5 191.258 20.2773 191.867 19.832C192.484 19.3867 192.934 18.8359 193.215 18.1797V17.3125C193.215 15.8906 192.906 14.7344 192.289 13.8438C191.672 12.9531 190.891 12.5078 189.945 12.5078C188.992 12.5078 188.227 12.875 187.648 13.6094C187.07 14.3359 186.781 15.2969 186.781 16.4922C186.781 17.6563 187.059 18.6172 187.613 19.375C188.176 20.125 188.926 20.5 189.863 20.5Z" fill="#F2F2F2"/>
<path d="M248 0.00170898H208V40.0017H248V0.00170898Z" fill="#313130"/>
<path d="M231.57 22.2695L233.938 22.2695V24.0391L231.57 24.0391V28H229.391V24.0391H221.621V22.7617L229.262 10.9375L231.57 10.9375V22.2695ZM224.082 22.2695H229.391V13.9023L229.133 14.3711L224.082 22.2695Z" fill="#F2F2F2"/>
<path d="M293 0.00170898H253V40.0017H293V0.00170898Z" fill="#B04341"/>
<path d="M272.598 28L261.418 28V26.4414L267.324 19.8789C268.199 18.8867 268.801 18.082 269.129 17.4648C269.465 16.8398 269.633 16.1953 269.633 15.5313C269.633 14.6406 269.363 13.9102 268.824 13.3398C268.285 12.7695 267.566 12.4844 266.668 12.4844C265.59 12.4844 264.75 12.793 264.148 13.4102C263.555 14.0195 263.258 14.8711 263.258 15.9648H261.09C261.09 14.3945 261.594 13.125 262.602 12.1562C263.617 11.1875 264.973 10.7031 266.668 10.7031C268.254 10.7031 269.508 11.1211 270.43 11.957C271.352 12.7852 271.812 13.8906 271.812 15.2734C271.812 16.9531 270.742 18.9531 268.602 21.2734L264.031 26.2305L272.598 26.2305V28ZM282.02 28H279.84V13.5508L275.469 15.1563V13.1875L281.68 10.8555H282.02V28Z" fill="#F2F2F2"/>
<path d="M338 0H298V40H338V0Z" fill="#313130"/>
<path d="M323.598 28L312.418 28V26.4414L318.324 19.8789C319.199 18.8867 319.801 18.082 320.129 17.4648C320.465 16.8398 320.633 16.1953 320.633 15.5313C320.633 14.6406 320.363 13.9102 319.824 13.3398C319.285 12.7695 318.566 12.4844 317.668 12.4844C316.59 12.4844 315.75 12.793 315.148 13.4102C314.555 14.0195 314.258 14.8711 314.258 15.9648H312.09C312.09 14.3945 312.594 13.125 313.602 12.1562C314.617 11.1875 315.973 10.7031 317.668 10.7031C319.254 10.7031 320.508 11.1211 321.43 11.957C322.352 12.7852 322.812 13.8906 322.812 15.2734C322.812 16.9531 321.742 18.9531 319.602 21.2734L315.031 26.2305L323.598 26.2305V28Z" fill="#F2F2F2"/>
<path d="M383 0H343V40H383V0Z" fill="#B04341"/>
<path d="M361.598 28L350.418 28V26.4414L356.324 19.8789C357.199 18.8867 357.801 18.082 358.129 17.4648C358.465 16.8398 358.633 16.1953 358.633 15.5313C358.633 14.6406 358.363 13.9102 357.824 13.3398C357.285 12.7695 356.566 12.4844 355.668 12.4844C354.59 12.4844 353.75 12.793 353.148 13.4102C352.555 14.0195 352.258 14.8711 352.258 15.9648H350.09C350.09 14.3945 350.594 13.125 351.602 12.1562C352.617 11.1875 353.973 10.7031 355.668 10.7031C357.254 10.7031 358.508 11.1211 359.43 11.957C360.352 12.7852 360.812 13.8906 360.812 15.2734C360.812 16.9531 359.742 18.9531 357.602 21.2734L353.031 26.2305L361.598 26.2305V28ZM364.891 19.4453L365.758 10.9375H374.5V12.9414H367.598L367.082 17.5938C367.918 17.1016 368.867 16.8555 369.93 16.8555C371.484 16.8555 372.719 17.3711 373.633 18.4023C374.547 19.4258 375.004 20.8125 375.004 22.5625C375.004 24.3203 374.527 25.707 373.574 26.7227C372.629 27.7305 371.305 28.2344 369.602 28.2344C368.094 28.2344 366.863 27.8164 365.91 26.9805C364.957 26.1445 364.414 24.9883 364.281 23.5117H366.332C366.465 24.4883 366.812 25.2266 367.375 25.7266C367.938 26.2188 368.68 26.4648 369.602 26.4648C370.609 26.4648 371.398 26.1211 371.969 25.4336C372.547 24.7461 372.836 23.7969 372.836 22.5859C372.836 21.4453 372.523 20.5313 371.898 19.8438C371.281 19.1484 370.457 18.8008 369.426 18.8008C368.48 18.8008 367.738 19.0078 367.199 19.4219L366.625 19.8906L364.891 19.4453Z" fill="#F2F2F2"/>
<path d="M428 0H388V40H428V0Z" fill="#313130"/>
<path d="M402.543 28H400.363V13.5508L395.992 15.1562V13.1875L402.203 10.8555L402.543 10.8555V28ZM419.91 12.1563L412.844 28H410.57L417.613 12.7188H408.379V10.9375H419.91V12.1563Z" fill="#F2F2F2"/>
<path d="M473 0H433V40H473V0Z" fill="#B04341"/>
<path d="M443.57 18.4141H445.199C446.223 18.3984 447.027 18.1289 447.613 17.6055C448.199 17.082 448.492 16.375 448.492 15.4844C448.492 13.4844 447.496 12.4844 445.504 12.4844C444.566 12.4844 443.816 12.7539 443.254 13.293C442.699 13.8242 442.422 14.5312 442.422 15.4141H440.254C440.254 14.0625 440.746 12.9414 441.73 12.0508C442.723 11.1523 443.98 10.7031 445.504 10.7031C447.113 10.7031 448.375 11.1289 449.289 11.9805C450.203 12.832 450.66 14.0156 450.66 15.5313C450.66 16.2734 450.418 16.9922 449.934 17.6875C449.457 18.3828 448.805 18.9023 447.977 19.2461C448.914 19.543 449.637 20.0352 450.145 20.7227C450.66 21.4102 450.918 22.25 450.918 23.2422C450.918 24.7734 450.418 25.9883 449.418 26.8867C448.418 27.7852 447.117 28.2344 445.516 28.2344C443.914 28.2344 442.609 27.8008 441.602 26.9336C440.602 26.0664 440.102 24.9219 440.102 23.5H442.281C442.281 24.3984 442.574 25.1172 443.16 25.6562C443.746 26.1953 444.531 26.4648 445.516 26.4648C446.562 26.4648 447.363 26.1914 447.918 25.6445C448.473 25.0977 448.75 24.3125 448.75 23.2891C448.75 22.2969 448.445 21.5352 447.836 21.0039C447.227 20.4727 446.348 20.1992 445.199 20.1836H443.57V18.4141ZM463.047 22.2695H465.414V24.0391H463.047V28H460.867V24.0391H453.098V22.7617L460.738 10.9375H463.047V22.2695ZM455.559 22.2695H460.867V13.9023L460.609 14.3711L455.559 22.2695Z" fill="#F2F2F2"/>
<path d="M518 0H478V40H518V0Z" fill="#313130"/>
<path d="M500.926 10.9258V12.7656H500.527C498.84 12.7969 497.496 13.2969 496.496 14.2656C495.496 15.2344 494.918 16.5977 494.762 18.3555C495.66 17.3242 496.887 16.8086 498.441 16.8086C499.926 16.8086 501.109 17.332 501.992 18.3789C502.883 19.4258 503.328 20.7773 503.328 22.4336C503.328 24.1914 502.848 25.5977 501.887 26.6523C500.934 27.707 499.652 28.2344 498.043 28.2344C496.41 28.2344 495.086 27.6094 494.07 26.3594C493.055 25.1016 492.547 23.4844 492.547 21.5078V20.6758C492.547 17.5352 493.215 15.1367 494.551 13.4805C495.895 11.8164 497.891 10.9648 500.539 10.9258H500.926ZM498.078 18.6133C497.336 18.6133 496.652 18.8359 496.027 19.2812C495.402 19.7266 494.969 20.2852 494.727 20.957V21.7539C494.727 23.1602 495.043 24.293 495.676 25.1523C496.309 26.0117 497.098 26.4414 498.043 26.4414C499.02 26.4414 499.785 26.082 500.34 25.3633C500.902 24.6445 501.184 23.7031 501.184 22.5391C501.184 21.3672 500.898 20.4219 500.328 19.7031C499.766 18.9766 499.016 18.6133 498.078 18.6133Z" fill="#F2F2F2"/>
<path d="M563 0H523V40H563V0Z" fill="#B04341"/>
<path d="M541.598 28L530.418 28V26.4414L536.324 19.8789C537.199 18.8867 537.801 18.082 538.129 17.4648C538.465 16.8398 538.633 16.1953 538.633 15.5313C538.633 14.6406 538.363 13.9102 537.824 13.3398C537.285 12.7695 536.566 12.4844 535.668 12.4844C534.59 12.4844 533.75 12.793 533.148 13.4102C532.555 14.0195 532.258 14.8711 532.258 15.9648H530.09C530.09 14.3945 530.594 13.125 531.602 12.1562C532.617 11.1875 533.973 10.7031 535.668 10.7031C537.254 10.7031 538.508 11.1211 539.43 11.957C540.352 12.7852 540.812 13.8906 540.812 15.2734C540.812 16.9531 539.742 18.9531 537.602 21.2734L533.031 26.2305L541.598 26.2305V28ZM554.91 12.1563L547.844 28H545.57L552.613 12.7188H543.379V10.9375H554.91V12.1563Z" fill="#F2F2F2"/>
<path d="M608 0.00170898H568V40.0017H608V0.00170898Z" fill="#313130"/>
<path d="M582.543 28H580.363V13.5508L575.992 15.1562V13.1875L582.203 10.8555L582.543 10.8555V28ZM592.047 18.4141H593.676C594.699 18.3984 595.504 18.1289 596.09 17.6055C596.676 17.082 596.969 16.375 596.969 15.4844C596.969 13.4844 595.973 12.4844 593.98 12.4844C593.043 12.4844 592.293 12.7539 591.73 13.293C591.176 13.8242 590.898 14.5313 590.898 15.4141L588.73 15.4141C588.73 14.0625 589.223 12.9414 590.207 12.0508C591.199 11.1523 592.457 10.7031 593.98 10.7031C595.59 10.7031 596.852 11.1289 597.766 11.9805C598.68 12.832 599.137 14.0156 599.137 15.5313C599.137 16.2734 598.895 16.9922 598.41 17.6875C597.934 18.3828 597.281 18.9023 596.453 19.2461C597.391 19.543 598.113 20.0352 598.621 20.7227C599.137 21.4102 599.395 22.25 599.395 23.2422C599.395 24.7734 598.895 25.9883 597.895 26.8867C596.895 27.7852 595.594 28.2344 593.992 28.2344C592.391 28.2344 591.086 27.8008 590.078 26.9336C589.078 26.0664 588.578 24.9219 588.578 23.5H590.758C590.758 24.3984 591.051 25.1172 591.637 25.6563C592.223 26.1953 593.008 26.4648 593.992 26.4648C595.039 26.4648 595.84 26.1914 596.395 25.6445C596.949 25.0977 597.227 24.3125 597.227 23.2891C597.227 22.2969 596.922 21.5352 596.312 21.0039C595.703 20.4727 594.824 20.1992 593.676 20.1836H592.047V18.4141Z" fill="#F2F2F2"/>
<path d="M653 0H613V40H653V0Z" fill="#B04341"/>
<path d="M624.57 18.4141H626.199C627.223 18.3984 628.027 18.1289 628.613 17.6055C629.199 17.082 629.492 16.375 629.492 15.4844C629.492 13.4844 628.496 12.4844 626.504 12.4844C625.566 12.4844 624.816 12.7539 624.254 13.293C623.699 13.8242 623.422 14.5312 623.422 15.4141H621.254C621.254 14.0625 621.746 12.9414 622.73 12.0508C623.723 11.1523 624.98 10.7031 626.504 10.7031C628.113 10.7031 629.375 11.1289 630.289 11.9805C631.203 12.832 631.66 14.0156 631.66 15.5313C631.66 16.2734 631.418 16.9922 630.934 17.6875C630.457 18.3828 629.805 18.9023 628.977 19.2461C629.914 19.543 630.637 20.0352 631.145 20.7227C631.66 21.4102 631.918 22.25 631.918 23.2422C631.918 24.7734 631.418 25.9883 630.418 26.8867C629.418 27.7852 628.117 28.2344 626.516 28.2344C624.914 28.2344 623.609 27.8008 622.602 26.9336C621.602 26.0664 621.102 24.9219 621.102 23.5H623.281C623.281 24.3984 623.574 25.1172 624.16 25.6562C624.746 26.1953 625.531 26.4648 626.516 26.4648C627.562 26.4648 628.363 26.1914 628.918 25.6445C629.473 25.0977 629.75 24.3125 629.75 23.2891C629.75 22.2969 629.445 21.5352 628.836 21.0039C628.227 20.4727 627.348 20.1992 626.199 20.1836H624.57V18.4141ZM643.402 10.9258V12.7656H643.004C641.316 12.7969 639.973 13.2969 638.973 14.2656C637.973 15.2344 637.395 16.5977 637.238 18.3555C638.137 17.3242 639.363 16.8086 640.918 16.8086C642.402 16.8086 643.586 17.332 644.469 18.3789C645.359 19.4258 645.805 20.7773 645.805 22.4336C645.805 24.1914 645.324 25.5977 644.363 26.6523C643.41 27.707 642.129 28.2344 640.52 28.2344C638.887 28.2344 637.562 27.6094 636.547 26.3594C635.531 25.1016 635.023 23.4844 635.023 21.5078V20.6758C635.023 17.5352 635.691 15.1367 637.027 13.4805C638.371 11.8164 640.367 10.9648 643.016 10.9258H643.402ZM640.555 18.6133C639.812 18.6133 639.129 18.8359 638.504 19.2813C637.879 19.7266 637.445 20.2852 637.203 20.957V21.7539C637.203 23.1602 637.52 24.293 638.152 25.1523C638.785 26.0117 639.574 26.4414 640.52 26.4414C641.496 26.4414 642.262 26.082 642.816 25.3633C643.379 24.6445 643.66 23.7031 643.66 22.5391C643.66 21.3672 643.375 20.4219 642.805 19.7031C642.242 18.9766 641.492 18.6133 640.555 18.6133Z" fill="#F2F2F2"/>
<path d="M698 0H658V40H698V0Z" fill="#313130"/>
<path d="M672.543 28H670.363V13.5508L665.992 15.1562V13.1875L672.203 10.8555L672.543 10.8555V28ZM686.02 28H683.84V13.5508L679.469 15.1563V13.1875L685.68 10.8555H686.02V28Z" fill="#F2F2F2"/>
<path d="M70.751 74.6201H78.0723V76H68.7559V74.7344L75.7695 64.5918H68.8701V63.2031H77.791V64.4424L70.751 74.6201ZM83.7588 76.1758C82.4697 76.1758 81.4209 75.7539 80.6123 74.9102C79.8037 74.0605 79.3994 72.9268 79.3994 71.5088V71.21C79.3994 70.2666 79.5781 69.4258 79.9355 68.6875C80.2988 67.9434 80.8027 67.3633 81.4473 66.9473C82.0977 66.5254 82.8008 66.3145 83.5566 66.3145C84.793 66.3145 85.7539 66.7217 86.4395 67.5361C87.125 68.3506 87.4678 69.5166 87.4678 71.0342V71.7109H81.0254C81.0488 72.6484 81.3213 73.4072 81.8428 73.9873C82.3701 74.5615 83.0381 74.8486 83.8467 74.8486C84.4209 74.8486 84.9072 74.7314 85.3057 74.4971C85.7041 74.2627 86.0527 73.9521 86.3516 73.5654L87.3447 74.3389C86.5479 75.5635 85.3525 76.1758 83.7588 76.1758ZM83.5566 67.6504C82.9004 67.6504 82.3496 67.8906 81.9043 68.3711C81.459 68.8457 81.1836 69.5137 81.0781 70.375H85.8418V70.252C85.7949 69.4258 85.5723 68.7871 85.1738 68.3359C84.7754 67.8789 84.2363 67.6504 83.5566 67.6504ZM93.9541 67.9492C93.708 67.9082 93.4414 67.8877 93.1543 67.8877C92.0879 67.8877 91.3643 68.3418 90.9834 69.25V76H89.3574V66.4902H90.9395L90.9658 67.5889C91.499 66.7393 92.2549 66.3145 93.2334 66.3145C93.5498 66.3145 93.79 66.3555 93.9541 66.4375V67.9492ZM94.8506 71.1572C94.8506 70.2256 95.0322 69.3877 95.3955 68.6436C95.7646 67.8994 96.2744 67.3252 96.9248 66.9209C97.5811 66.5166 98.3281 66.3145 99.166 66.3145C100.461 66.3145 101.507 66.7627 102.304 67.6592C103.106 68.5557 103.508 69.748 103.508 71.2363V71.3506C103.508 72.2764 103.329 73.1084 102.972 73.8467C102.62 74.5791 102.113 75.1504 101.451 75.5605C100.795 75.9707 100.039 76.1758 99.1836 76.1758C97.8945 76.1758 96.8486 75.7275 96.0459 74.8311C95.249 73.9346 94.8506 72.748 94.8506 71.2715V71.1572ZM96.4854 71.3506C96.4854 72.4053 96.7285 73.252 97.2148 73.8906C97.707 74.5293 98.3633 74.8486 99.1836 74.8486C100.01 74.8486 100.666 74.5264 101.152 73.8818C101.639 73.2314 101.882 72.3232 101.882 71.1572C101.882 70.1143 101.633 69.2705 101.135 68.626C100.643 67.9756 99.9863 67.6504 99.166 67.6504C98.3633 67.6504 97.7158 67.9697 97.2236 68.6084C96.7314 69.2471 96.4854 70.1611 96.4854 71.3506Z" fill="white"/>
<path d="M171.722 73.7588L175.378 63.2031H177.224L172.478 76H170.983L166.246 63.2031H168.083L171.722 73.7588ZM177.856 71.1572C177.856 70.2256 178.038 69.3877 178.401 68.6436C178.771 67.8994 179.28 67.3252 179.931 66.9209C180.587 66.5166 181.334 66.3145 182.172 66.3145C183.467 66.3145 184.513 66.7627 185.31 67.6592C186.112 68.5557 186.514 69.748 186.514 71.2363V71.3506C186.514 72.2764 186.335 73.1084 185.978 73.8467C185.626 74.5791 185.119 75.1504 184.457 75.5605C183.801 75.9707 183.045 76.1758 182.189 76.1758C180.9 76.1758 179.854 75.7275 179.052 74.8311C178.255 73.9346 177.856 72.748 177.856 71.2715V71.1572ZM179.491 71.3506C179.491 72.4053 179.734 73.252 180.221 73.8906C180.713 74.5293 181.369 74.8486 182.189 74.8486C183.016 74.8486 183.672 74.5264 184.158 73.8818C184.645 73.2314 184.888 72.3232 184.888 71.1572C184.888 70.1143 184.639 69.2705 184.141 68.626C183.648 67.9756 182.992 67.6504 182.172 67.6504C181.369 67.6504 180.722 67.9697 180.229 68.6084C179.737 69.2471 179.491 70.1611 179.491 71.3506ZM190.319 76H188.693V66.4902H190.319V76ZM188.562 63.9678C188.562 63.7041 188.641 63.4814 188.799 63.2998C188.963 63.1182 189.203 63.0273 189.52 63.0273C189.836 63.0273 190.076 63.1182 190.24 63.2998C190.404 63.4814 190.486 63.7041 190.486 63.9678C190.486 64.2314 190.404 64.4512 190.24 64.627C190.076 64.8027 189.836 64.8906 189.52 64.8906C189.203 64.8906 188.963 64.8027 188.799 64.627C188.641 64.4512 188.562 64.2314 188.562 63.9678ZM198.467 73.4775C198.467 73.0381 198.3 72.6982 197.966 72.458C197.638 72.2119 197.061 72.001 196.234 71.8252C195.414 71.6494 194.761 71.4385 194.274 71.1924C193.794 70.9463 193.437 70.6533 193.202 70.3135C192.974 69.9736 192.859 69.5693 192.859 69.1006C192.859 68.3213 193.188 67.6621 193.844 67.123C194.506 66.584 195.35 66.3145 196.375 66.3145C197.453 66.3145 198.326 66.5928 198.994 67.1494C199.668 67.7061 200.005 68.418 200.005 69.2852H198.37C198.37 68.8398 198.18 68.4561 197.799 68.1338C197.424 67.8115 196.949 67.6504 196.375 67.6504C195.783 67.6504 195.32 67.7793 194.986 68.0371C194.652 68.2949 194.485 68.6318 194.485 69.0479C194.485 69.4404 194.641 69.7363 194.951 69.9355C195.262 70.1348 195.821 70.3252 196.63 70.5068C197.444 70.6885 198.104 70.9053 198.607 71.1572C199.111 71.4092 199.483 71.7139 199.724 72.0713C199.97 72.4229 200.093 72.8535 200.093 73.3633C200.093 74.2129 199.753 74.8955 199.073 75.4111C198.394 75.9209 197.512 76.1758 196.428 76.1758C195.666 76.1758 194.992 76.041 194.406 75.7715C193.82 75.502 193.36 75.127 193.026 74.6465C192.698 74.1602 192.534 73.6357 192.534 73.0732H194.16C194.189 73.6182 194.406 74.0518 194.811 74.374C195.221 74.6904 195.76 74.8486 196.428 74.8486C197.043 74.8486 197.535 74.7256 197.904 74.4795C198.279 74.2275 198.467 73.8936 198.467 73.4775ZM203.978 76H202.352V66.4902H203.978V76ZM202.22 63.9678C202.22 63.7041 202.299 63.4814 202.457 63.2998C202.621 63.1182 202.861 63.0273 203.178 63.0273C203.494 63.0273 203.734 63.1182 203.898 63.2998C204.062 63.4814 204.145 63.7041 204.145 63.9678C204.145 64.2314 204.062 64.4512 203.898 64.627C203.734 64.8027 203.494 64.8906 203.178 64.8906C202.861 64.8906 202.621 64.8027 202.457 64.627C202.299 64.4512 202.22 64.2314 202.22 63.9678ZM208.126 66.4902L208.179 67.6855C208.905 66.7715 209.854 66.3145 211.026 66.3145C213.036 66.3145 214.05 67.4482 214.067 69.7158V76H212.441V69.707C212.436 69.0215 212.277 68.5146 211.967 68.1865C211.662 67.8584 211.185 67.6943 210.534 67.6943C210.007 67.6943 209.544 67.835 209.146 68.1162C208.747 68.3975 208.437 68.7666 208.214 69.2236V76H206.588V66.4902H208.126ZM222.057 73.4775C222.057 73.0381 221.89 72.6982 221.556 72.458C221.228 72.2119 220.65 72.001 219.824 71.8252C219.004 71.6494 218.351 71.4385 217.864 71.1924C217.384 70.9463 217.026 70.6533 216.792 70.3135C216.563 69.9736 216.449 69.5693 216.449 69.1006C216.449 68.3213 216.777 67.6621 217.434 67.123C218.096 66.584 218.939 66.3145 219.965 66.3145C221.043 66.3145 221.916 66.5928 222.584 67.1494C223.258 67.7061 223.595 68.418 223.595 69.2852H221.96C221.96 68.8398 221.77 68.4561 221.389 68.1338C221.014 67.8115 220.539 67.6504 219.965 67.6504C219.373 67.6504 218.91 67.7793 218.576 68.0371C218.242 68.2949 218.075 68.6318 218.075 69.0479C218.075 69.4404 218.23 69.7363 218.541 69.9355C218.852 70.1348 219.411 70.3252 220.22 70.5068C221.034 70.6885 221.693 70.9053 222.197 71.1572C222.701 71.4092 223.073 71.7139 223.313 72.0713C223.56 72.4229 223.683 72.8535 223.683 73.3633C223.683 74.2129 223.343 74.8955 222.663 75.4111C221.983 75.9209 221.102 76.1758 220.018 76.1758C219.256 76.1758 218.582 76.041 217.996 75.7715C217.41 75.502 216.95 75.127 216.616 74.6465C216.288 74.1602 216.124 73.6357 216.124 73.0732H217.75C217.779 73.6182 217.996 74.0518 218.4 74.374C218.811 74.6904 219.35 74.8486 220.018 74.8486C220.633 74.8486 221.125 74.7256 221.494 74.4795C221.869 74.2275 222.057 73.8936 222.057 73.4775ZM229.87 71.166C229.87 69.707 230.216 68.5352 230.907 67.6504C231.599 66.7598 232.504 66.3145 233.623 66.3145C234.736 66.3145 235.618 66.6953 236.269 67.457V62.5H237.895V76H236.4L236.321 74.9805C235.671 75.7773 234.766 76.1758 233.605 76.1758C232.504 76.1758 231.604 75.7246 230.907 74.8223C230.216 73.9199 229.87 72.7422 229.87 71.2891V71.166ZM231.496 71.3506C231.496 72.4287 231.719 73.2725 232.164 73.8818C232.609 74.4912 233.225 74.7959 234.01 74.7959C235.041 74.7959 235.794 74.333 236.269 73.4072V69.0391C235.782 68.1426 235.035 67.6943 234.027 67.6943C233.23 67.6943 232.609 68.002 232.164 68.6172C231.719 69.2324 231.496 70.1436 231.496 71.3506ZM246.297 75.0596C245.664 75.8037 244.735 76.1758 243.511 76.1758C242.497 76.1758 241.724 75.8828 241.19 75.2969C240.663 74.7051 240.396 73.832 240.391 72.6777V66.4902H242.017V72.6338C242.017 74.0752 242.603 74.7959 243.774 74.7959C245.017 74.7959 245.843 74.333 246.253 73.4072V66.4902H247.879V76H246.332L246.297 75.0596ZM256.343 74.6201H263.664V76H254.348V74.7344L261.361 64.5918H254.462V63.2031H263.383V64.4424L256.343 74.6201ZM269.351 76.1758C268.062 76.1758 267.013 75.7539 266.204 74.9102C265.396 74.0605 264.991 72.9268 264.991 71.5088V71.21C264.991 70.2666 265.17 69.4258 265.527 68.6875C265.891 67.9434 266.395 67.3633 267.039 66.9473C267.689 66.5254 268.393 66.3145 269.148 66.3145C270.385 66.3145 271.346 66.7217 272.031 67.5361C272.717 68.3506 273.06 69.5166 273.06 71.0342V71.7109H266.617C266.641 72.6484 266.913 73.4072 267.435 73.9873C267.962 74.5615 268.63 74.8486 269.438 74.8486C270.013 74.8486 270.499 74.7314 270.897 74.4971C271.296 74.2627 271.645 73.9521 271.943 73.5654L272.937 74.3389C272.14 75.5635 270.944 76.1758 269.351 76.1758ZM269.148 67.6504C268.492 67.6504 267.941 67.8906 267.496 68.3711C267.051 68.8457 266.775 69.5137 266.67 70.375H271.434V70.252C271.387 69.4258 271.164 68.7871 270.766 68.3359C270.367 67.8789 269.828 67.6504 269.148 67.6504ZM279.546 67.9492C279.3 67.9082 279.033 67.8877 278.746 67.8877C277.68 67.8877 276.956 68.3418 276.575 69.25V76H274.949V66.4902H276.531L276.558 67.5889C277.091 66.7393 277.847 66.3145 278.825 66.3145C279.142 66.3145 279.382 66.3555 279.546 66.4375V67.9492ZM280.442 71.1572C280.442 70.2256 280.624 69.3877 280.987 68.6436C281.356 67.8994 281.866 67.3252 282.517 66.9209C283.173 66.5166 283.92 66.3145 284.758 66.3145C286.053 66.3145 287.099 66.7627 287.896 67.6592C288.698 68.5557 289.1 69.748 289.1 71.2363V71.3506C289.1 72.2764 288.921 73.1084 288.563 73.8467C288.212 74.5791 287.705 75.1504 287.043 75.5605C286.387 75.9707 285.631 76.1758 284.775 76.1758C283.486 76.1758 282.44 75.7275 281.638 74.8311C280.841 73.9346 280.442 72.748 280.442 71.2715V71.1572ZM282.077 71.3506C282.077 72.4053 282.32 73.252 282.807 73.8906C283.299 74.5293 283.955 74.8486 284.775 74.8486C285.602 74.8486 286.258 74.5264 286.744 73.8818C287.23 73.2314 287.474 72.3232 287.474 71.1572C287.474 70.1143 287.225 69.2705 286.727 68.626C286.234 67.9756 285.578 67.6504 284.758 67.6504C283.955 67.6504 283.308 67.9697 282.815 68.6084C282.323 69.2471 282.077 70.1611 282.077 71.3506Z" fill="white"/>
<path d="M391.329 70.0146C391.329 71.2686 391.118 72.3643 390.696 73.3018C390.274 74.2334 389.677 74.9453 388.903 75.4375C388.13 75.9297 387.228 76.1758 386.196 76.1758C385.188 76.1758 384.295 75.9297 383.516 75.4375C382.736 74.9395 382.13 74.2334 381.696 73.3193C381.269 72.3994 381.049 71.3359 381.037 70.1289V69.2061C381.037 67.9756 381.251 66.8887 381.679 65.9453C382.106 65.002 382.71 64.2812 383.489 63.7832C384.274 63.2793 385.171 63.0273 386.179 63.0273C387.204 63.0273 388.106 63.2764 388.886 63.7744C389.671 64.2666 390.274 64.9844 390.696 65.9277C391.118 66.8652 391.329 67.958 391.329 69.2061V70.0146ZM389.65 69.1885C389.65 67.6709 389.346 66.5078 388.736 65.6992C388.127 64.8848 387.274 64.4775 386.179 64.4775C385.112 64.4775 384.271 64.8848 383.656 65.6992C383.047 66.5078 382.733 67.6328 382.716 69.0742V70.0146C382.716 71.4854 383.023 72.6426 383.639 73.4863C384.26 74.3242 385.112 74.7432 386.196 74.7432C387.286 74.7432 388.13 74.3477 388.728 73.5566C389.325 72.7598 389.633 71.6201 389.65 70.1377V69.1885ZM398.202 67.9492C397.956 67.9082 397.689 67.8877 397.402 67.8877C396.336 67.8877 395.612 68.3418 395.231 69.25V76H393.605V66.4902H395.188L395.214 67.5889C395.747 66.7393 396.503 66.3145 397.481 66.3145C397.798 66.3145 398.038 66.3555 398.202 66.4375V67.9492ZM407.738 71.3506C407.738 72.7979 407.407 73.9639 406.745 74.8486C406.083 75.7334 405.187 76.1758 404.056 76.1758C402.901 76.1758 401.993 75.8096 401.331 75.0771V79.6562H399.705V66.4902H401.19L401.27 67.5449C401.932 66.7246 402.852 66.3145 404.029 66.3145C405.172 66.3145 406.074 66.7451 406.736 67.6064C407.404 68.4678 407.738 69.666 407.738 71.2012V71.3506ZM406.112 71.166C406.112 70.0938 405.884 69.2471 405.427 68.626C404.97 68.0049 404.343 67.6943 403.546 67.6943C402.562 67.6943 401.823 68.1309 401.331 69.0039V73.5479C401.817 74.415 402.562 74.8486 403.563 74.8486C404.343 74.8486 404.961 74.541 405.418 73.9258C405.881 73.3047 406.112 72.3848 406.112 71.166ZM411.438 67.6416C412.159 66.7568 413.097 66.3145 414.251 66.3145C416.261 66.3145 417.274 67.4482 417.292 69.7158V76H415.666V69.707C415.66 69.0215 415.502 68.5146 415.191 68.1865C414.887 67.8584 414.409 67.6943 413.759 67.6943C413.231 67.6943 412.769 67.835 412.37 68.1162C411.972 68.3975 411.661 68.7666 411.438 69.2236V76H409.812V62.5H411.438V67.6416ZM423.673 76.1758C422.384 76.1758 421.335 75.7539 420.526 74.9102C419.718 74.0605 419.313 72.9268 419.313 71.5088V71.21C419.313 70.2666 419.492 69.4258 419.85 68.6875C420.213 67.9434 420.717 67.3633 421.361 66.9473C422.012 66.5254 422.715 66.3145 423.471 66.3145C424.707 66.3145 425.668 66.7217 426.354 67.5361C427.039 68.3506 427.382 69.5166 427.382 71.0342V71.7109H420.939C420.963 72.6484 421.235 73.4072 421.757 73.9873C422.284 74.5615 422.952 74.8486 423.761 74.8486C424.335 74.8486 424.821 74.7314 425.22 74.4971C425.618 74.2627 425.967 73.9521 426.266 73.5654L427.259 74.3389C426.462 75.5635 425.267 76.1758 423.673 76.1758ZM423.471 67.6504C422.814 67.6504 422.264 67.8906 421.818 68.3711C421.373 68.8457 421.098 69.5137 420.992 70.375H425.756V70.252C425.709 69.4258 425.486 68.7871 425.088 68.3359C424.689 67.8789 424.15 67.6504 423.471 67.6504ZM431.038 76H429.412V62.5H431.038V76ZM435.415 76H433.789V66.4902H435.415V76ZM433.657 63.9678C433.657 63.7041 433.736 63.4814 433.895 63.2998C434.059 63.1182 434.299 63.0273 434.615 63.0273C434.932 63.0273 435.172 63.1182 435.336 63.2998C435.5 63.4814 435.582 63.7041 435.582 63.9678C435.582 64.2314 435.5 64.4512 435.336 64.627C435.172 64.8027 434.932 64.8906 434.615 64.8906C434.299 64.8906 434.059 64.8027 433.895 64.627C433.736 64.4512 433.657 64.2314 433.657 63.9678ZM439.563 66.4902L439.616 67.6855C440.343 66.7715 441.292 66.3145 442.464 66.3145C444.474 66.3145 445.487 67.4482 445.505 69.7158V76H443.879V69.707C443.873 69.0215 443.715 68.5146 443.404 68.1865C443.1 67.8584 442.622 67.6943 441.972 67.6943C441.444 67.6943 440.981 67.835 440.583 68.1162C440.185 68.3975 439.874 68.7666 439.651 69.2236V76H438.025V66.4902H439.563ZM453.494 73.4775C453.494 73.0381 453.327 72.6982 452.993 72.458C452.665 72.2119 452.088 72.001 451.262 71.8252C450.441 71.6494 449.788 71.4385 449.302 71.1924C448.821 70.9463 448.464 70.6533 448.229 70.3135C448.001 69.9736 447.887 69.5693 447.887 69.1006C447.887 68.3213 448.215 67.6621 448.871 67.123C449.533 66.584 450.377 66.3145 451.402 66.3145C452.48 66.3145 453.354 66.5928 454.021 67.1494C454.695 67.7061 455.032 68.418 455.032 69.2852H453.397C453.397 68.8398 453.207 68.4561 452.826 68.1338C452.451 67.8115 451.977 67.6504 451.402 67.6504C450.811 67.6504 450.348 67.7793 450.014 68.0371C449.68 68.2949 449.513 68.6318 449.513 69.0479C449.513 69.4404 449.668 69.7363 449.979 69.9355C450.289 70.1348 450.849 70.3252 451.657 70.5068C452.472 70.6885 453.131 70.9053 453.635 71.1572C454.139 71.4092 454.511 71.7139 454.751 72.0713C454.997 72.4229 455.12 72.8535 455.12 73.3633C455.12 74.2129 454.78 74.8955 454.101 75.4111C453.421 75.9209 452.539 76.1758 451.455 76.1758C450.693 76.1758 450.02 76.041 449.434 75.7715C448.848 75.502 448.388 75.127 448.054 74.6465C447.726 74.1602 447.562 73.6357 447.562 73.0732H449.188C449.217 73.6182 449.434 74.0518 449.838 74.374C450.248 74.6904 450.787 74.8486 451.455 74.8486C452.07 74.8486 452.562 74.7256 452.932 74.4795C453.307 74.2275 453.494 73.8936 453.494 73.4775ZM465.649 76.1758C464.36 76.1758 463.312 75.7539 462.503 74.9102C461.694 74.0605 461.29 72.9268 461.29 71.5088V71.21C461.29 70.2666 461.469 69.4258 461.826 68.6875C462.189 67.9434 462.693 67.3633 463.338 66.9473C463.988 66.5254 464.691 66.3145 465.447 66.3145C466.684 66.3145 467.645 66.7217 468.33 67.5361C469.016 68.3506 469.358 69.5166 469.358 71.0342V71.7109H462.916C462.939 72.6484 463.212 73.4072 463.733 73.9873C464.261 74.5615 464.929 74.8486 465.737 74.8486C466.312 74.8486 466.798 74.7314 467.196 74.4971C467.595 74.2627 467.943 73.9521 468.242 73.5654L469.235 74.3389C468.438 75.5635 467.243 76.1758 465.649 76.1758ZM465.447 67.6504C464.791 67.6504 464.24 67.8906 463.795 68.3711C463.35 68.8457 463.074 69.5137 462.969 70.375H467.732V70.252C467.686 69.4258 467.463 68.7871 467.064 68.3359C466.666 67.8789 466.127 67.6504 465.447 67.6504ZM472.786 66.4902L472.839 67.6855C473.565 66.7715 474.515 66.3145 475.687 66.3145C477.696 66.3145 478.71 67.4482 478.728 69.7158V76H477.102V69.707C477.096 69.0215 476.938 68.5146 476.627 68.1865C476.322 67.8584 475.845 67.6943 475.194 67.6943C474.667 67.6943 474.204 67.835 473.806 68.1162C473.407 68.3975 473.097 68.7666 472.874 69.2236V76H471.248V66.4902H472.786ZM487.587 70.9902V76H485.899V63.2031H490.619C492.02 63.2031 493.115 63.5605 493.906 64.2754C494.703 64.9902 495.102 65.9365 495.102 67.1143C495.102 68.3564 494.712 69.3145 493.933 69.9883C493.159 70.6562 492.049 70.9902 490.602 70.9902H487.587ZM487.587 69.6104H490.619C491.521 69.6104 492.213 69.3994 492.693 68.9775C493.174 68.5498 493.414 67.9346 493.414 67.1318C493.414 66.3701 493.174 65.7607 492.693 65.3037C492.213 64.8467 491.554 64.6094 490.716 64.5918H487.587V69.6104ZM498.767 76H497.141V62.5H498.767V76ZM505.323 76.1758C504.034 76.1758 502.985 75.7539 502.177 74.9102C501.368 74.0605 500.964 72.9268 500.964 71.5088V71.21C500.964 70.2666 501.143 69.4258 501.5 68.6875C501.863 67.9434 502.367 67.3633 503.012 66.9473C503.662 66.5254 504.365 66.3145 505.121 66.3145C506.357 66.3145 507.318 66.7217 508.004 67.5361C508.689 68.3506 509.032 69.5166 509.032 71.0342V71.7109H502.59C502.613 72.6484 502.886 73.4072 503.407 73.9873C503.935 74.5615 504.603 74.8486 505.411 74.8486C505.985 74.8486 506.472 74.7314 506.87 74.4971C507.269 74.2627 507.617 73.9521 507.916 73.5654L508.909 74.3389C508.112 75.5635 506.917 76.1758 505.323 76.1758ZM505.121 67.6504C504.465 67.6504 503.914 67.8906 503.469 68.3711C503.023 68.8457 502.748 69.5137 502.643 70.375H507.406V70.252C507.359 69.4258 507.137 68.7871 506.738 68.3359C506.34 67.8789 505.801 67.6504 505.121 67.6504ZM512.688 76H511.062V66.4902H512.688V76ZM510.931 63.9678C510.931 63.7041 511.01 63.4814 511.168 63.2998C511.332 63.1182 511.572 63.0273 511.889 63.0273C512.205 63.0273 512.445 63.1182 512.609 63.2998C512.773 63.4814 512.855 63.7041 512.855 63.9678C512.855 64.2314 512.773 64.4512 512.609 64.627C512.445 64.8027 512.205 64.8906 511.889 64.8906C511.572 64.8906 511.332 64.8027 511.168 64.627C511.01 64.4512 510.931 64.2314 510.931 63.9678ZM516.837 66.4902L516.89 67.6855C517.616 66.7715 518.565 66.3145 519.737 66.3145C521.747 66.3145 522.761 67.4482 522.778 69.7158V76H521.152V69.707C521.146 69.0215 520.988 68.5146 520.678 68.1865C520.373 67.8584 519.896 67.6943 519.245 67.6943C518.718 67.6943 518.255 67.835 517.856 68.1162C517.458 68.3975 517.147 68.7666 516.925 69.2236V76H515.299V66.4902H516.837Z" fill="white"/>
<path d="M578.327 65.5918H574.214V77H572.535V65.5918H568.431V64.2031H578.327V65.5918ZM581.737 77H580.111V67.4902H581.737V77ZM579.979 64.9678C579.979 64.7041 580.059 64.4814 580.217 64.2998C580.381 64.1182 580.621 64.0273 580.938 64.0273C581.254 64.0273 581.494 64.1182 581.658 64.2998C581.822 64.4814 581.904 64.7041 581.904 64.9678C581.904 65.2314 581.822 65.4512 581.658 65.627C581.494 65.8027 581.254 65.8906 580.938 65.8906C580.621 65.8906 580.381 65.8027 580.217 65.627C580.059 65.4512 579.979 65.2314 579.979 64.9678ZM588.294 77.1758C587.005 77.1758 585.956 76.7539 585.147 75.9102C584.339 75.0605 583.935 73.9268 583.935 72.5088V72.21C583.935 71.2666 584.113 70.4258 584.471 69.6875C584.834 68.9434 585.338 68.3633 585.982 67.9473C586.633 67.5254 587.336 67.3145 588.092 67.3145C589.328 67.3145 590.289 67.7217 590.975 68.5361C591.66 69.3506 592.003 70.5166 592.003 72.0342V72.7109H585.561C585.584 73.6484 585.856 74.4072 586.378 74.9873C586.905 75.5615 587.573 75.8486 588.382 75.8486C588.956 75.8486 589.442 75.7314 589.841 75.4971C590.239 75.2627 590.588 74.9521 590.887 74.5654L591.88 75.3389C591.083 76.5635 589.888 77.1758 588.294 77.1758ZM588.092 68.6504C587.436 68.6504 586.885 68.8906 586.439 69.3711C585.994 69.8457 585.719 70.5137 585.613 71.375H590.377V71.252C590.33 70.4258 590.107 69.7871 589.709 69.3359C589.311 68.8789 588.771 68.6504 588.092 68.6504ZM598.489 68.9492C598.243 68.9082 597.977 68.8877 597.689 68.8877C596.623 68.8877 595.899 69.3418 595.519 70.25V77H593.893V67.4902H595.475L595.501 68.5889C596.034 67.7393 596.79 67.3145 597.769 67.3145C598.085 67.3145 598.325 67.3555 598.489 67.4375V68.9492ZM605.529 74.4775C605.529 74.0381 605.362 73.6982 605.028 73.458C604.7 73.2119 604.123 73.001 603.297 72.8252C602.477 72.6494 601.823 72.4385 601.337 72.1924C600.856 71.9463 600.499 71.6533 600.265 71.3135C600.036 70.9736 599.922 70.5693 599.922 70.1006C599.922 69.3213 600.25 68.6621 600.906 68.123C601.568 67.584 602.412 67.3145 603.438 67.3145C604.516 67.3145 605.389 67.5928 606.057 68.1494C606.73 68.7061 607.067 69.418 607.067 70.2852H605.433C605.433 69.8398 605.242 69.4561 604.861 69.1338C604.486 68.8115 604.012 68.6504 603.438 68.6504C602.846 68.6504 602.383 68.7793 602.049 69.0371C601.715 69.2949 601.548 69.6318 601.548 70.0479C601.548 70.4404 601.703 70.7363 602.014 70.9355C602.324 71.1348 602.884 71.3252 603.692 71.5068C604.507 71.6885 605.166 71.9053 605.67 72.1572C606.174 72.4092 606.546 72.7139 606.786 73.0713C607.032 73.4229 607.155 73.8535 607.155 74.3633C607.155 75.2129 606.815 75.8955 606.136 76.4111C605.456 76.9209 604.574 77.1758 603.49 77.1758C602.729 77.1758 602.055 77.041 601.469 76.7715C600.883 76.502 600.423 76.127 600.089 75.6465C599.761 75.1602 599.597 74.6357 599.597 74.0732H601.223C601.252 74.6182 601.469 75.0518 601.873 75.374C602.283 75.6904 602.822 75.8486 603.49 75.8486C604.105 75.8486 604.598 75.7256 604.967 75.4795C605.342 75.2275 605.529 74.8936 605.529 74.4775ZM613.343 72.166C613.343 70.707 613.688 69.5352 614.38 68.6504C615.071 67.7598 615.977 67.3145 617.096 67.3145C618.209 67.3145 619.091 67.6953 619.741 68.457V63.5H621.367V77H619.873L619.794 75.9805C619.144 76.7773 618.238 77.1758 617.078 77.1758C615.977 77.1758 615.077 76.7246 614.38 75.8223C613.688 74.9199 613.343 73.7422 613.343 72.2891V72.166ZM614.969 72.3506C614.969 73.4287 615.191 74.2725 615.637 74.8818C616.082 75.4912 616.697 75.7959 617.482 75.7959C618.514 75.7959 619.267 75.333 619.741 74.4072V70.0391C619.255 69.1426 618.508 68.6943 617.5 68.6943C616.703 68.6943 616.082 69.002 615.637 69.6172C615.191 70.2324 614.969 71.1436 614.969 72.3506ZM629.77 76.0596C629.137 76.8037 628.208 77.1758 626.983 77.1758C625.97 77.1758 625.196 76.8828 624.663 76.2969C624.136 75.7051 623.869 74.832 623.863 73.6777V67.4902H625.489V73.6338C625.489 75.0752 626.075 75.7959 627.247 75.7959C628.489 75.7959 629.315 75.333 629.726 74.4072V67.4902H631.352V77H629.805L629.77 76.0596ZM647.963 72.9395C647.805 74.293 647.304 75.3389 646.46 76.0771C645.622 76.8096 644.506 77.1758 643.111 77.1758C641.6 77.1758 640.387 76.6338 639.473 75.5498C638.564 74.4658 638.11 73.0156 638.11 71.1992V69.9688C638.11 68.7793 638.321 67.7334 638.743 66.8311C639.171 65.9287 639.774 65.2373 640.554 64.7568C641.333 64.2705 642.235 64.0273 643.261 64.0273C644.62 64.0273 645.71 64.4082 646.53 65.1699C647.351 65.9258 647.828 66.9746 647.963 68.3164H646.267C646.12 67.2969 645.801 66.5586 645.309 66.1016C644.822 65.6445 644.14 65.416 643.261 65.416C642.183 65.416 641.336 65.8145 640.721 66.6113C640.111 67.4082 639.807 68.542 639.807 70.0127V71.252C639.807 72.6406 640.097 73.7451 640.677 74.5654C641.257 75.3857 642.068 75.7959 643.111 75.7959C644.049 75.7959 644.767 75.585 645.265 75.1631C645.769 74.7354 646.103 73.9941 646.267 72.9395H647.963ZM653.131 74.6182L655.346 67.4902H657.086L653.263 78.4678C652.671 80.0498 651.73 80.8408 650.441 80.8408L650.134 80.8145L649.527 80.7002V79.3818L649.967 79.417C650.518 79.417 650.945 79.3057 651.25 79.083C651.561 78.8604 651.815 78.4531 652.015 77.8613L652.375 76.8945L648.982 67.4902H650.758L653.131 74.6182ZM660.312 77H658.686V63.5H660.312V77ZM664.688 77H663.062V67.4902H664.688V77ZM662.931 64.9678C662.931 64.7041 663.01 64.4814 663.168 64.2998C663.332 64.1182 663.572 64.0273 663.889 64.0273C664.205 64.0273 664.445 64.1182 664.609 64.2998C664.773 64.4814 664.855 64.7041 664.855 64.9678C664.855 65.2314 664.773 65.4512 664.609 65.627C664.445 65.8027 664.205 65.8906 663.889 65.8906C663.572 65.8906 663.332 65.8027 663.168 65.627C663.01 65.4512 662.931 65.2314 662.931 64.9678ZM668.837 67.4902L668.89 68.6855C669.616 67.7715 670.565 67.3145 671.737 67.3145C673.747 67.3145 674.761 68.4482 674.778 70.7158V77H673.152V70.707C673.146 70.0215 672.988 69.5146 672.678 69.1865C672.373 68.8584 671.896 68.6943 671.245 68.6943C670.718 68.6943 670.255 68.835 669.856 69.1162C669.458 69.3975 669.147 69.7666 668.925 70.2236V77H667.299V67.4902H668.837ZM676.835 72.166C676.835 70.707 677.181 69.5352 677.872 68.6504C678.563 67.7598 679.469 67.3145 680.588 67.3145C681.701 67.3145 682.583 67.6953 683.233 68.457V63.5H684.859V77H683.365L683.286 75.9805C682.636 76.7773 681.73 77.1758 680.57 77.1758C679.469 77.1758 678.569 76.7246 677.872 75.8223C677.181 74.9199 676.835 73.7422 676.835 72.2891V72.166ZM678.461 72.3506C678.461 73.4287 678.684 74.2725 679.129 74.8818C679.574 75.4912 680.189 75.7959 680.975 75.7959C682.006 75.7959 682.759 75.333 683.233 74.4072V70.0391C682.747 69.1426 682 68.6943 680.992 68.6943C680.195 68.6943 679.574 69.002 679.129 69.6172C678.684 70.2324 678.461 71.1436 678.461 72.3506ZM691.987 68.9492C691.741 68.9082 691.475 68.8877 691.188 68.8877C690.121 68.8877 689.397 69.3418 689.017 70.25V77H687.391V67.4902H688.973L688.999 68.5889C689.532 67.7393 690.288 67.3145 691.267 67.3145C691.583 67.3145 691.823 67.3555 691.987 67.4375V68.9492ZM697.261 77.1758C695.972 77.1758 694.923 76.7539 694.114 75.9102C693.306 75.0605 692.901 73.9268 692.901 72.5088V72.21C692.901 71.2666 693.08 70.4258 693.438 69.6875C693.801 68.9434 694.305 68.3633 694.949 67.9473C695.6 67.5254 696.303 67.3145 697.059 67.3145C698.295 67.3145 699.256 67.7217 699.941 68.5361C700.627 69.3506 700.97 70.5166 700.97 72.0342V72.7109H694.527C694.551 73.6484 694.823 74.4072 695.345 74.9873C695.872 75.5615 696.54 75.8486 697.349 75.8486C697.923 75.8486 698.409 75.7314 698.808 75.4971C699.206 75.2627 699.555 74.9521 699.854 74.5654L700.847 75.3389C700.05 76.5635 698.854 77.1758 697.261 77.1758ZM697.059 68.6504C696.402 68.6504 695.852 68.8906 695.406 69.3711C694.961 69.8457 694.686 70.5137 694.58 71.375H699.344V71.252C699.297 70.4258 699.074 69.7871 698.676 69.3359C698.277 68.8789 697.738 68.6504 697.059 68.6504Z" fill="white"/>
<path d="M112.971 96.0017H72.9707V136.002H112.971V96.0017Z" fill="#B04341"/>
<path d="M87.543 124H85.3633V109.551L80.9922 111.156V109.188L87.2031 106.855H87.543V124ZM105.074 124H93.8945V122.441L99.8008 115.879C100.676 114.887 101.277 114.082 101.605 113.465C101.941 112.84 102.109 112.195 102.109 111.531C102.109 110.641 101.84 109.91 101.301 109.34C100.762 108.77 100.043 108.484 99.1445 108.484C98.0664 108.484 97.2266 108.793 96.625 109.41C96.0312 110.02 95.7344 110.871 95.7344 111.965H93.5664C93.5664 110.395 94.0703 109.125 95.0781 108.156C96.0938 107.188 97.4492 106.703 99.1445 106.703C100.73 106.703 101.984 107.121 102.906 107.957C103.828 108.785 104.289 109.891 104.289 111.273C104.289 112.953 103.219 114.953 101.078 117.273L96.5078 122.23H105.074V124Z" fill="#F2F2F2"/>
<path d="M157.971 96H117.971V136H157.971V96Z" fill="#313130"/>
<path d="M136.598 124H125.418V122.441L131.324 115.879C132.199 114.887 132.801 114.082 133.129 113.465C133.465 112.84 133.633 112.195 133.633 111.531C133.633 110.641 133.363 109.91 132.824 109.34C132.285 108.77 131.566 108.484 130.668 108.484C129.59 108.484 128.75 108.793 128.148 109.41C127.555 110.02 127.258 110.871 127.258 111.965H125.09C125.09 110.395 125.594 109.125 126.602 108.156C127.617 107.188 128.973 106.703 130.668 106.703C132.254 106.703 133.508 107.121 134.43 107.957C135.352 108.785 135.812 109.891 135.812 111.273C135.812 112.953 134.742 114.953 132.602 117.273L128.031 122.23H136.598V124ZM149.242 111.391C149.242 112.242 149.016 113 148.562 113.664C148.117 114.328 147.512 114.848 146.746 115.223C147.637 115.605 148.34 116.164 148.855 116.898C149.379 117.633 149.641 118.465 149.641 119.395C149.641 120.871 149.141 122.047 148.141 122.922C147.148 123.797 145.84 124.234 144.215 124.234C142.574 124.234 141.258 123.797 140.266 122.922C139.281 122.039 138.789 120.863 138.789 119.395C138.789 118.473 139.039 117.641 139.539 116.898C140.047 116.156 140.746 115.594 141.637 115.211C140.879 114.836 140.281 114.316 139.844 113.652C139.406 112.988 139.188 112.234 139.188 111.391C139.188 109.953 139.648 108.812 140.57 107.969C141.492 107.125 142.707 106.703 144.215 106.703C145.715 106.703 146.926 107.125 147.848 107.969C148.777 108.812 149.242 109.953 149.242 111.391ZM147.473 119.348C147.473 118.395 147.168 117.617 146.559 117.016C145.957 116.414 145.168 116.113 144.191 116.113C143.215 116.113 142.43 116.41 141.836 117.004C141.25 117.598 140.957 118.379 140.957 119.348C140.957 120.316 141.242 121.078 141.812 121.633C142.391 122.188 143.191 122.465 144.215 122.465C145.23 122.465 146.027 122.188 146.605 121.633C147.184 121.07 147.473 120.309 147.473 119.348ZM144.215 108.484C143.363 108.484 142.672 108.75 142.141 109.281C141.617 109.805 141.355 110.52 141.355 111.426C141.355 112.293 141.613 112.996 142.129 113.535C142.652 114.066 143.348 114.332 144.215 114.332C145.082 114.332 145.773 114.066 146.289 113.535C146.812 112.996 147.074 112.293 147.074 111.426C147.074 110.559 146.805 109.852 146.266 109.305C145.727 108.758 145.043 108.484 144.215 108.484Z" fill="#F2F2F2"/>
<path d="M203 96.0017H163V136.002H203V96.0017Z" fill="#B04341"/>
<path d="M188.434 108.156L181.367 124H179.094L186.137 108.719H176.902V106.938H188.434V108.156Z" fill="#F2F2F2"/>
<path d="M248 96H208V136H248V96Z" fill="#313130"/>
<path d="M226.598 124H215.418V122.441L221.324 115.879C222.199 114.887 222.801 114.082 223.129 113.465C223.465 112.84 223.633 112.195 223.633 111.531C223.633 110.641 223.363 109.91 222.824 109.34C222.285 108.77 221.566 108.484 220.668 108.484C219.59 108.484 218.75 108.793 218.148 109.41C217.555 110.02 217.258 110.871 217.258 111.965H215.09C215.09 110.395 215.594 109.125 216.602 108.156C217.617 107.188 218.973 106.703 220.668 106.703C222.254 106.703 223.508 107.121 224.43 107.957C225.352 108.785 225.812 109.891 225.812 111.273C225.812 112.953 224.742 114.953 222.602 117.273L218.031 122.23H226.598V124ZM237.203 116.5C236.75 117.039 236.207 117.473 235.574 117.801C234.949 118.129 234.262 118.293 233.512 118.293C232.527 118.293 231.668 118.051 230.934 117.566C230.207 117.082 229.645 116.402 229.246 115.527C228.848 114.645 228.648 113.672 228.648 112.609C228.648 111.469 228.863 110.441 229.293 109.527C229.73 108.613 230.348 107.914 231.145 107.43C231.941 106.945 232.871 106.703 233.934 106.703C235.621 106.703 236.949 107.336 237.918 108.602C238.895 109.859 239.383 111.578 239.383 113.758V114.391C239.383 117.711 238.727 120.137 237.414 121.668C236.102 123.191 234.121 123.973 231.473 124.012H231.051V122.184H231.508C233.297 122.152 234.672 121.688 235.633 120.789C236.594 119.883 237.117 118.453 237.203 116.5ZM233.863 116.5C234.59 116.5 235.258 116.277 235.867 115.832C236.484 115.387 236.934 114.836 237.215 114.18V113.312C237.215 111.891 236.906 110.734 236.289 109.844C235.672 108.953 234.891 108.508 233.945 108.508C232.992 108.508 232.227 108.875 231.648 109.609C231.07 110.336 230.781 111.297 230.781 112.492C230.781 113.656 231.059 114.617 231.613 115.375C232.176 116.125 232.926 116.5 233.863 116.5Z" fill="#F2F2F2"/>
<path d="M293 96H253V136H293V96Z" fill="#B04341"/>
<path d="M267.543 124H265.363V109.551L260.992 111.156V109.188L267.203 106.855H267.543V124ZM284.242 111.391C284.242 112.242 284.016 113 283.562 113.664C283.117 114.328 282.512 114.848 281.746 115.223C282.637 115.605 283.34 116.164 283.855 116.898C284.379 117.633 284.641 118.465 284.641 119.395C284.641 120.871 284.141 122.047 283.141 122.922C282.148 123.797 280.84 124.234 279.215 124.234C277.574 124.234 276.258 123.797 275.266 122.922C274.281 122.039 273.789 120.863 273.789 119.395C273.789 118.473 274.039 117.641 274.539 116.898C275.047 116.156 275.746 115.594 276.637 115.211C275.879 114.836 275.281 114.316 274.844 113.652C274.406 112.988 274.188 112.234 274.188 111.391C274.188 109.953 274.648 108.812 275.57 107.969C276.492 107.125 277.707 106.703 279.215 106.703C280.715 106.703 281.926 107.125 282.848 107.969C283.777 108.812 284.242 109.953 284.242 111.391ZM282.473 119.348C282.473 118.395 282.168 117.617 281.559 117.016C280.957 116.414 280.168 116.113 279.191 116.113C278.215 116.113 277.43 116.41 276.836 117.004C276.25 117.598 275.957 118.379 275.957 119.348C275.957 120.316 276.242 121.078 276.812 121.633C277.391 122.188 278.191 122.465 279.215 122.465C280.23 122.465 281.027 122.188 281.605 121.633C282.184 121.07 282.473 120.309 282.473 119.348ZM279.215 108.484C278.363 108.484 277.672 108.75 277.141 109.281C276.617 109.805 276.355 110.52 276.355 111.426C276.355 112.293 276.613 112.996 277.129 113.535C277.652 114.066 278.348 114.332 279.215 114.332C280.082 114.332 280.773 114.066 281.289 113.535C281.812 112.996 282.074 112.293 282.074 111.426C282.074 110.559 281.805 109.852 281.266 109.305C280.727 108.758 280.043 108.484 279.215 108.484Z" fill="#F2F2F2"/>
<path d="M338 96.0017H298V136.002H338V96.0017Z" fill="#313130"/>
<path d="M316.598 124H305.418V122.441L311.324 115.879C312.199 114.887 312.801 114.082 313.129 113.465C313.465 112.84 313.633 112.195 313.633 111.531C313.633 110.641 313.363 109.91 312.824 109.34C312.285 108.77 311.566 108.484 310.668 108.484C309.59 108.484 308.75 108.793 308.148 109.41C307.555 110.02 307.258 110.871 307.258 111.965H305.09C305.09 110.395 305.594 109.125 306.602 108.156C307.617 107.188 308.973 106.703 310.668 106.703C312.254 106.703 313.508 107.121 314.43 107.957C315.352 108.785 315.812 109.891 315.812 111.273C315.812 112.953 314.742 114.953 312.602 117.273L308.031 122.23H316.598V124ZM330.074 124H318.895V122.441L324.801 115.879C325.676 114.887 326.277 114.082 326.605 113.465C326.941 112.84 327.109 112.195 327.109 111.531C327.109 110.641 326.84 109.91 326.301 109.34C325.762 108.77 325.043 108.484 324.145 108.484C323.066 108.484 322.227 108.793 321.625 109.41C321.031 110.02 320.734 110.871 320.734 111.965H318.566C318.566 110.395 319.07 109.125 320.078 108.156C321.094 107.188 322.449 106.703 324.145 106.703C325.73 106.703 326.984 107.121 327.906 107.957C328.828 108.785 329.289 109.891 329.289 111.273C329.289 112.953 328.219 114.953 326.078 117.273L321.508 122.23H330.074V124Z" fill="#F2F2F2"/>
<path d="M383 96.0017H343V136.002H383V96.0017Z" fill="#B04341"/>
<path d="M365.727 116.5C365.273 117.039 364.73 117.473 364.098 117.801C363.473 118.129 362.785 118.293 362.035 118.293C361.051 118.293 360.191 118.051 359.457 117.566C358.73 117.082 358.168 116.402 357.77 115.527C357.371 114.645 357.172 113.672 357.172 112.609C357.172 111.469 357.387 110.441 357.816 109.527C358.254 108.613 358.871 107.914 359.668 107.43C360.465 106.945 361.395 106.703 362.457 106.703C364.145 106.703 365.473 107.336 366.441 108.602C367.418 109.859 367.906 111.578 367.906 113.758V114.391C367.906 117.711 367.25 120.137 365.938 121.668C364.625 123.191 362.645 123.973 359.996 124.012H359.574V122.184H360.031C361.82 122.152 363.195 121.688 364.156 120.789C365.117 119.883 365.641 118.453 365.727 116.5ZM362.387 116.5C363.113 116.5 363.781 116.277 364.391 115.832C365.008 115.387 365.457 114.836 365.738 114.18V113.312C365.738 111.891 365.43 110.734 364.812 109.844C364.195 108.953 363.414 108.508 362.469 108.508C361.516 108.508 360.75 108.875 360.172 109.609C359.594 110.336 359.305 111.297 359.305 112.492C359.305 113.656 359.582 114.617 360.137 115.375C360.699 116.125 361.449 116.5 362.387 116.5Z" fill="#F2F2F2"/>
<path d="M428 96.0017H388V136.002H428V96.0017Z" fill="#313130"/>
<path d="M399.57 114.414H401.199C402.223 114.398 403.027 114.129 403.613 113.605C404.199 113.082 404.492 112.375 404.492 111.484C404.492 109.484 403.496 108.484 401.504 108.484C400.566 108.484 399.816 108.754 399.254 109.293C398.699 109.824 398.422 110.531 398.422 111.414H396.254C396.254 110.062 396.746 108.941 397.73 108.051C398.723 107.152 399.98 106.703 401.504 106.703C403.113 106.703 404.375 107.129 405.289 107.98C406.203 108.832 406.66 110.016 406.66 111.531C406.66 112.273 406.418 112.992 405.934 113.688C405.457 114.383 404.805 114.902 403.977 115.246C404.914 115.543 405.637 116.035 406.145 116.723C406.66 117.41 406.918 118.25 406.918 119.242C406.918 120.773 406.418 121.988 405.418 122.887C404.418 123.785 403.117 124.234 401.516 124.234C399.914 124.234 398.609 123.801 397.602 122.934C396.602 122.066 396.102 120.922 396.102 119.5H398.281C398.281 120.398 398.574 121.117 399.16 121.656C399.746 122.195 400.531 122.465 401.516 122.465C402.562 122.465 403.363 122.191 403.918 121.645C404.473 121.098 404.75 120.312 404.75 119.289C404.75 118.297 404.445 117.535 403.836 117.004C403.227 116.473 402.348 116.199 401.199 116.184H399.57V114.414ZM417.02 124H414.84V109.551L410.469 111.156V109.188L416.68 106.855H417.02V124Z" fill="#F2F2F2"/>
<path d="M473 96.0017H433V136.002H473V96.0017Z" fill="#B04341"/>
<path d="M447.543 124H445.363V109.551L440.992 111.156V109.188L447.203 106.855H447.543V124ZM463.047 118.27H465.414V120.039H463.047V124H460.867V120.039H453.098V118.762L460.738 106.938H463.047V118.27ZM455.559 118.27H460.867V109.902L460.609 110.371L455.559 118.27Z" fill="#F2F2F2"/>
<path d="M518 96.0017H478V136.002H518V96.0017Z" fill="#313130"/>
<path d="M496.598 124H485.418V122.441L491.324 115.879C492.199 114.887 492.801 114.082 493.129 113.465C493.465 112.84 493.633 112.195 493.633 111.531C493.633 110.641 493.363 109.91 492.824 109.34C492.285 108.77 491.566 108.484 490.668 108.484C489.59 108.484 488.75 108.793 488.148 109.41C487.555 110.02 487.258 110.871 487.258 111.965H485.09C485.09 110.395 485.594 109.125 486.602 108.156C487.617 107.188 488.973 106.703 490.668 106.703C492.254 106.703 493.508 107.121 494.43 107.957C495.352 108.785 495.812 109.891 495.812 111.273C495.812 112.953 494.742 114.953 492.602 117.273L488.031 122.23H496.598V124ZM509.594 116.723C509.594 119.262 509.16 121.148 508.293 122.383C507.426 123.617 506.07 124.234 504.227 124.234C502.406 124.234 501.059 123.633 500.184 122.43C499.309 121.219 498.855 119.414 498.824 117.016V114.121C498.824 111.613 499.258 109.75 500.125 108.531C500.992 107.312 502.352 106.703 504.203 106.703C506.039 106.703 507.391 107.293 508.258 108.473C509.125 109.645 509.57 111.457 509.594 113.91V116.723ZM507.426 113.758C507.426 111.922 507.168 110.586 506.652 109.75C506.137 108.906 505.32 108.484 504.203 108.484C503.094 108.484 502.285 108.902 501.777 109.738C501.27 110.574 501.008 111.859 500.992 113.594V117.062C500.992 118.906 501.258 120.27 501.789 121.152C502.328 122.027 503.141 122.465 504.227 122.465C505.297 122.465 506.09 122.051 506.605 121.223C507.129 120.395 507.402 119.09 507.426 117.309V113.758Z" fill="#F2F2F2"/>
<path d="M563 96.0017H523V136.002H563V96.0017Z" fill="#B04341"/>
<path d="M544.543 124H542.363V109.551L537.992 111.156V109.188L544.203 106.855H544.543V124Z" fill="#F2F2F2"/>
<path d="M608 96.0017H568V136.002H608V96.0017Z" fill="#313130"/>
<path d="M578.57 114.414H580.199C581.223 114.398 582.027 114.129 582.613 113.605C583.199 113.082 583.492 112.375 583.492 111.484C583.492 109.484 582.496 108.484 580.504 108.484C579.566 108.484 578.816 108.754 578.254 109.293C577.699 109.824 577.422 110.531 577.422 111.414H575.254C575.254 110.062 575.746 108.941 576.73 108.051C577.723 107.152 578.98 106.703 580.504 106.703C582.113 106.703 583.375 107.129 584.289 107.98C585.203 108.832 585.66 110.016 585.66 111.531C585.66 112.273 585.418 112.992 584.934 113.688C584.457 114.383 583.805 114.902 582.977 115.246C583.914 115.543 584.637 116.035 585.145 116.723C585.66 117.41 585.918 118.25 585.918 119.242C585.918 120.773 585.418 121.988 584.418 122.887C583.418 123.785 582.117 124.234 580.516 124.234C578.914 124.234 577.609 123.801 576.602 122.934C575.602 122.066 575.102 120.922 575.102 119.5H577.281C577.281 120.398 577.574 121.117 578.16 121.656C578.746 122.195 579.531 122.465 580.516 122.465C581.562 122.465 582.363 122.191 582.918 121.645C583.473 121.098 583.75 120.312 583.75 119.289C583.75 118.297 583.445 117.535 582.836 117.004C582.227 116.473 581.348 116.199 580.199 116.184H578.57V114.414ZM592.047 114.414H593.676C594.699 114.398 595.504 114.129 596.09 113.605C596.676 113.082 596.969 112.375 596.969 111.484C596.969 109.484 595.973 108.484 593.98 108.484C593.043 108.484 592.293 108.754 591.73 109.293C591.176 109.824 590.898 110.531 590.898 111.414H588.73C588.73 110.062 589.223 108.941 590.207 108.051C591.199 107.152 592.457 106.703 593.98 106.703C595.59 106.703 596.852 107.129 597.766 107.98C598.68 108.832 599.137 110.016 599.137 111.531C599.137 112.273 598.895 112.992 598.41 113.688C597.934 114.383 597.281 114.902 596.453 115.246C597.391 115.543 598.113 116.035 598.621 116.723C599.137 117.41 599.395 118.25 599.395 119.242C599.395 120.773 598.895 121.988 597.895 122.887C596.895 123.785 595.594 124.234 593.992 124.234C592.391 124.234 591.086 123.801 590.078 122.934C589.078 122.066 588.578 120.922 588.578 119.5H590.758C590.758 120.398 591.051 121.117 591.637 121.656C592.223 122.195 593.008 122.465 593.992 122.465C595.039 122.465 595.84 122.191 596.395 121.645C596.949 121.098 597.227 120.312 597.227 119.289C597.227 118.297 596.922 117.535 596.312 117.004C595.703 116.473 594.824 116.199 593.676 116.184H592.047V114.414Z" fill="#F2F2F2"/>
<path d="M653 96.0017H613V136.002H653V96.0017Z" fill="#B04341"/>
<path d="M627.543 124H625.363V109.551L620.992 111.156V109.188L627.203 106.855H627.543V124ZM642.402 106.926V108.766H642.004C640.316 108.797 638.973 109.297 637.973 110.266C636.973 111.234 636.395 112.598 636.238 114.355C637.137 113.324 638.363 112.809 639.918 112.809C641.402 112.809 642.586 113.332 643.469 114.379C644.359 115.426 644.805 116.777 644.805 118.434C644.805 120.191 644.324 121.598 643.363 122.652C642.41 123.707 641.129 124.234 639.52 124.234C637.887 124.234 636.562 123.609 635.547 122.359C634.531 121.102 634.023 119.484 634.023 117.508V116.676C634.023 113.535 634.691 111.137 636.027 109.48C637.371 107.816 639.367 106.965 642.016 106.926H642.402ZM639.555 114.613C638.812 114.613 638.129 114.836 637.504 115.281C636.879 115.727 636.445 116.285 636.203 116.957V117.754C636.203 119.16 636.52 120.293 637.152 121.152C637.785 122.012 638.574 122.441 639.52 122.441C640.496 122.441 641.262 122.082 641.816 121.363C642.379 120.645 642.66 119.703 642.66 118.539C642.66 117.367 642.375 116.422 641.805 115.703C641.242 114.977 640.492 114.613 639.555 114.613Z" fill="#F2F2F2"/>
<path d="M698 96.0017H658V136.002H698V96.0017Z" fill="#313130"/>
<path d="M677.598 124H666.418V122.441L672.324 115.879C673.199 114.887 673.801 114.082 674.129 113.465C674.465 112.84 674.633 112.195 674.633 111.531C674.633 110.641 674.363 109.91 673.824 109.34C673.285 108.77 672.566 108.484 671.668 108.484C670.59 108.484 669.75 108.793 669.148 109.41C668.555 110.02 668.258 110.871 668.258 111.965H666.09C666.09 110.395 666.594 109.125 667.602 108.156C668.617 107.188 669.973 106.703 671.668 106.703C673.254 106.703 674.508 107.121 675.43 107.957C676.352 108.785 676.812 109.891 676.812 111.273C676.812 112.953 675.742 114.953 673.602 117.273L669.031 122.23H677.598V124ZM689.047 118.27H691.414V120.039H689.047V124H686.867V120.039H679.098V118.762L686.738 106.938H689.047V118.27ZM681.559 118.27H686.867V109.902L686.609 110.371L681.559 118.27Z" fill="#F2F2F2"/>
<path d="M742.116 12.3904L718.129 44.454C713.76 41.6356 708.556 40 702.971 40V0C717.544 0 731.047 4.58468 742.116 12.3904Z" fill="#B04341"/>
<path d="M709.57 17.4141H711.199C712.223 17.3984 713.027 17.1289 713.613 16.6055C714.199 16.082 714.492 15.375 714.492 14.4844C714.492 12.4844 713.496 11.4844 711.504 11.4844C710.566 11.4844 709.816 11.7539 709.254 12.293C708.699 12.8242 708.422 13.5312 708.422 14.4141H706.254C706.254 13.0625 706.746 11.9414 707.73 11.0508C708.723 10.1523 709.98 9.70312 711.504 9.70312C713.113 9.70312 714.375 10.1289 715.289 10.9805C716.203 11.832 716.66 13.0156 716.66 14.5313C716.66 15.2734 716.418 15.9922 715.934 16.6875C715.457 17.3828 714.805 17.9023 713.977 18.2461C714.914 18.543 715.637 19.0352 716.145 19.7227C716.66 20.4102 716.918 21.25 716.918 22.2422C716.918 23.7734 716.418 24.9883 715.418 25.8867C714.418 26.7852 713.117 27.2344 711.516 27.2344C709.914 27.2344 708.609 26.8008 707.602 25.9336C706.602 25.0664 706.102 23.9219 706.102 22.5H708.281C708.281 23.3984 708.574 24.1172 709.16 24.6562C709.746 25.1953 710.531 25.4648 711.516 25.4648C712.562 25.4648 713.363 25.1914 713.918 24.6445C714.473 24.0977 714.75 23.3125 714.75 22.2891C714.75 21.2969 714.445 20.5352 713.836 20.0039C713.227 19.4727 712.348 19.1992 711.199 19.1836H709.57V17.4141ZM730.594 19.7227C730.594 22.2617 730.16 24.1484 729.293 25.3828C728.426 26.6172 727.07 27.2344 725.227 27.2344C723.406 27.2344 722.059 26.6328 721.184 25.4297C720.309 24.2188 719.855 22.4141 719.824 20.0156V17.1211C719.824 14.6133 720.258 12.75 721.125 11.5313C721.992 10.3125 723.352 9.70313 725.203 9.70313C727.039 9.70313 728.391 10.293 729.258 11.4727C730.125 12.6445 730.57 14.457 730.594 16.9102V19.7227ZM728.426 16.7578C728.426 14.9219 728.168 13.5859 727.652 12.75C727.137 11.9063 726.32 11.4844 725.203 11.4844C724.094 11.4844 723.285 11.9023 722.777 12.7383C722.27 13.5742 722.008 14.8594 721.992 16.5938V20.0625C721.992 21.9063 722.258 23.2695 722.789 24.1523C723.328 25.0273 724.141 25.4648 725.227 25.4648C726.297 25.4648 727.09 25.0508 727.605 24.2227C728.129 23.3945 728.402 22.0898 728.426 20.3086V16.7578Z" fill="#F2F2F2"/>
<path d="M767.349 46.0452L729.09 57.8882C727.551 53.9169 725.133 50.3838 722.074 47.5283L746.095 15.4199C755.775 23.3688 763.222 33.9388 767.349 46.0452Z" fill="#313130"/>
<path d="M749.766 35.3906C749.766 36.2422 749.539 37 749.086 37.6641C748.641 38.3281 748.035 38.8477 747.27 39.2227C748.16 39.6055 748.863 40.1641 749.379 40.8984C749.902 41.6328 750.164 42.4648 750.164 43.3945C750.164 44.8711 749.664 46.0469 748.664 46.9219C747.672 47.7969 746.363 48.2344 744.738 48.2344C743.098 48.2344 741.781 47.7969 740.789 46.9219C739.805 46.0391 739.312 44.8633 739.312 43.3945C739.312 42.4727 739.562 41.6406 740.062 40.8984C740.57 40.1562 741.27 39.5938 742.16 39.2109C741.402 38.8359 740.805 38.3164 740.367 37.6523C739.93 36.9883 739.711 36.2344 739.711 35.3906C739.711 33.9531 740.172 32.8125 741.094 31.9688C742.016 31.125 743.23 30.7031 744.738 30.7031C746.238 30.7031 747.449 31.125 748.371 31.9688C749.301 32.8125 749.766 33.9531 749.766 35.3906ZM747.996 43.3477C747.996 42.3945 747.691 41.6172 747.082 41.0156C746.48 40.4141 745.691 40.1133 744.715 40.1133C743.738 40.1133 742.953 40.4102 742.359 41.0039C741.773 41.5977 741.48 42.3789 741.48 43.3477C741.48 44.3164 741.766 45.0781 742.336 45.6328C742.914 46.1875 743.715 46.4648 744.738 46.4648C745.754 46.4648 746.551 46.1875 747.129 45.6328C747.707 45.0703 747.996 44.3086 747.996 43.3477ZM744.738 32.4844C743.887 32.4844 743.195 32.75 742.664 33.2812C742.141 33.8047 741.879 34.5195 741.879 35.4258C741.879 36.293 742.137 36.9961 742.652 37.5352C743.176 38.0664 743.871 38.332 744.738 38.332C745.605 38.332 746.297 38.0664 746.812 37.5352C747.336 36.9961 747.598 36.293 747.598 35.4258C747.598 34.5586 747.328 33.8516 746.789 33.3047C746.25 32.7578 745.566 32.4844 744.738 32.4844Z" fill="#F2F2F2"/>
<path d="M702.971 96C708.068 96 712.846 94.6382 716.963 92.2585L740.061 125.003C729.394 131.958 716.655 136 702.971 136V96Z" fill="#B04341"/>
<path d="M711.414 118.445L712.281 109.938H721.023V111.941H714.121L713.605 116.594C714.441 116.102 715.391 115.855 716.453 115.855C718.008 115.855 719.242 116.371 720.156 117.402C721.07 118.426 721.527 119.812 721.527 121.562C721.527 123.32 721.051 124.707 720.098 125.723C719.152 126.73 717.828 127.234 716.125 127.234C714.617 127.234 713.387 126.816 712.434 125.98C711.48 125.145 710.938 123.988 710.805 122.512H712.855C712.988 123.488 713.336 124.227 713.898 124.727C714.461 125.219 715.203 125.465 716.125 125.465C717.133 125.465 717.922 125.121 718.492 124.434C719.07 123.746 719.359 122.797 719.359 121.586C719.359 120.445 719.047 119.531 718.422 118.844C717.805 118.148 716.98 117.801 715.949 117.801C715.004 117.801 714.262 118.008 713.723 118.422L713.148 118.891L711.414 118.445Z" fill="#F2F2F2"/>
<path fill-rule="evenodd" clip-rule="evenodd" d="M770.97 68C770.97 74.9246 769.935 81.6075 768.011 87.9023L730.09 74.9926C730.664 72.7575 730.97 70.4145 730.97 68C730.97 66.1863 730.798 64.4129 730.468 62.6953L768.785 50.8345C770.211 56.3178 770.97 62.0703 770.97 68Z" fill="#B04341"/>
<path d="M754.598 77H743.418V75.4414L749.324 68.8789C750.199 67.8867 750.801 67.082 751.129 66.4648C751.465 65.8398 751.633 65.1953 751.633 64.5312C751.633 63.6406 751.363 62.9102 750.824 62.3398C750.285 61.7695 749.566 61.4844 748.668 61.4844C747.59 61.4844 746.75 61.793 746.148 62.4102C745.555 63.0195 745.258 63.8711 745.258 64.9648H743.09C743.09 63.3945 743.594 62.125 744.602 61.1562C745.617 60.1875 746.973 59.7031 748.668 59.7031C750.254 59.7031 751.508 60.1211 752.43 60.957C753.352 61.7852 753.812 62.8906 753.812 64.2734C753.812 65.9531 752.742 67.9531 750.602 70.2734L746.031 75.2305H754.598V77ZM760.047 67.4141H761.676C762.699 67.3984 763.504 67.1289 764.09 66.6055C764.676 66.082 764.969 65.375 764.969 64.4844C764.969 62.4844 763.973 61.4844 761.98 61.4844C761.043 61.4844 760.293 61.7539 759.73 62.293C759.176 62.8242 758.898 63.5312 758.898 64.4141H756.73C756.73 63.0625 757.223 61.9414 758.207 61.0508C759.199 60.1523 760.457 59.7031 761.98 59.7031C763.59 59.7031 764.852 60.1289 765.766 60.9805C766.68 61.832 767.137 63.0156 767.137 64.5312C767.137 65.2734 766.895 65.9922 766.41 66.6875C765.934 67.3828 765.281 67.9023 764.453 68.2461C765.391 68.543 766.113 69.0352 766.621 69.7227C767.137 70.4102 767.395 71.25 767.395 72.2422C767.395 73.7734 766.895 74.9883 765.895 75.8867C764.895 76.7852 763.594 77.2344 761.992 77.2344C760.391 77.2344 759.086 76.8008 758.078 75.9336C757.078 75.0664 756.578 73.9219 756.578 72.5H758.758C758.758 73.3984 759.051 74.1172 759.637 74.6562C760.223 75.1953 761.008 75.4648 761.992 75.4648C763.039 75.4648 763.84 75.1914 764.395 74.6445C764.949 74.0977 765.227 73.3125 765.227 72.2891C765.227 71.2969 764.922 70.5352 764.312 70.0039C763.703 69.4727 762.824 69.1992 761.676 69.1836H760.047V67.4141Z" fill="#F2F2F2"/>
<path d="M728.414 79.7039L766.374 92.6265C761.797 104.401 754.035 114.585 744.146 122.12L721.051 89.3803C724.161 86.7477 726.689 83.4487 728.414 79.7039Z" fill="#313130"/>
<path d="M738.543 107H736.363V92.5508L731.992 94.1562V92.1875L738.203 89.8555H738.543V107ZM755.594 99.7227C755.594 102.262 755.16 104.148 754.293 105.383C753.426 106.617 752.07 107.234 750.227 107.234C748.406 107.234 747.059 106.633 746.184 105.43C745.309 104.219 744.855 102.414 744.824 100.016V97.1211C744.824 94.6133 745.258 92.75 746.125 91.5312C746.992 90.3125 748.352 89.7031 750.203 89.7031C752.039 89.7031 753.391 90.293 754.258 91.4727C755.125 92.6445 755.57 94.457 755.594 96.9102V99.7227ZM753.426 96.7578C753.426 94.9219 753.168 93.5859 752.652 92.75C752.137 91.9062 751.32 91.4844 750.203 91.4844C749.094 91.4844 748.285 91.9023 747.777 92.7383C747.27 93.5742 747.008 94.8594 746.992 96.5938V100.062C746.992 101.906 747.258 103.27 747.789 104.152C748.328 105.027 749.141 105.465 750.227 105.465C751.297 105.465 752.09 105.051 752.605 104.223C753.129 103.395 753.402 102.09 753.426 100.309V96.7578Z" fill="#F2F2F2"/>
<path d="M21.5137 18.343L49.8356 46.6649C54.7212 42.5083 61.053 40 67.9702 40V0C50.0066 0 33.6699 6.96552 21.5137 18.343Z" fill="#30AA30"/>
<path d="M58.1172 23.7227C58.1172 26.2617 57.6836 28.1484 56.8164 29.3828C55.9492 30.6172 54.5938 31.2344 52.75 31.2344C50.9297 31.2344 49.582 30.6328 48.707 29.4297C47.832 28.2188 47.3789 26.4141 47.3477 24.0156V21.1211C47.3477 18.6133 47.7812 16.75 48.6484 15.5312C49.5156 14.3125 50.875 13.7031 52.7266 13.7031C54.5625 13.7031 55.9141 14.293 56.7812 15.4727C57.6484 16.6445 58.0938 18.457 58.1172 20.9102V23.7227ZM55.9492 20.7578C55.9492 18.9219 55.6914 17.5859 55.1758 16.75C54.6602 15.9063 53.8438 15.4844 52.7266 15.4844C51.6172 15.4844 50.8086 15.9023 50.3008 16.7383C49.793 17.5742 49.5312 18.8594 49.5156 20.5938V24.0625C49.5156 25.9062 49.7812 27.2695 50.3125 28.1523C50.8516 29.0273 51.6641 29.4648 52.75 29.4648C53.8203 29.4648 54.6133 29.0508 55.1289 28.2227C55.6523 27.3945 55.9258 26.0898 55.9492 24.3086V20.7578Z" fill="#F2F2F2"/>
<path d="M40.1305 71C40.7332 76.6582 43.0213 81.8129 46.4831 85.9522L18.1528 114.283C7.50575 102.827 0.76184 87.6942 0.0371094 71H40.1305Z" fill="#B04341"/>
<path d="M17.5703 83.4141H19.1992C20.2227 83.3984 21.0273 83.1289 21.6133 82.6055C22.1992 82.082 22.4922 81.375 22.4922 80.4844C22.4922 78.4844 21.4961 77.4844 19.5039 77.4844C18.5664 77.4844 17.8164 77.7539 17.2539 78.293C16.6992 78.8242 16.4219 79.5312 16.4219 80.4141H14.2539C14.2539 79.0625 14.7461 77.9414 15.7305 77.0508C16.7227 76.1523 17.9805 75.7031 19.5039 75.7031C21.1133 75.7031 22.375 76.1289 23.2891 76.9805C24.2031 77.832 24.6602 79.0156 24.6602 80.5312C24.6602 81.2734 24.418 81.9922 23.9336 82.6875C23.457 83.3828 22.8047 83.9023 21.9766 84.2461C22.9141 84.543 23.6367 85.0352 24.1445 85.7227C24.6602 86.4102 24.918 87.25 24.918 88.2422C24.918 89.7734 24.418 90.9883 23.418 91.8867C22.418 92.7852 21.1172 93.2344 19.5156 93.2344C17.9141 93.2344 16.6094 92.8008 15.6016 91.9336C14.6016 91.0664 14.1016 89.9219 14.1016 88.5H16.2812C16.2812 89.3984 16.5742 90.1172 17.1602 90.6562C17.7461 91.1953 18.5312 91.4648 19.5156 91.4648C20.5625 91.4648 21.3633 91.1914 21.918 90.6445C22.4727 90.0977 22.75 89.3125 22.75 88.2891C22.75 87.2969 22.4453 86.5352 21.8359 86.0039C21.2266 85.4727 20.3477 85.1992 19.1992 85.1836H17.5703L17.5703 83.4141Z" fill="#F2F2F2"/>
<path d="M46.3309 50.2304C42.7528 54.5826 40.4621 60.0333 40.041 66.0001H0C0.491173 48.9949 7.22563 33.5545 17.9913 21.8909L46.3309 50.2304Z" fill="#313130"/>
<path d="M20.5977 60H9.41797V58.4414L15.3242 51.8789C16.1992 50.8867 16.8008 50.082 17.1289 49.4648C17.4648 48.8398 17.6328 48.1953 17.6328 47.5312C17.6328 46.6406 17.3633 45.9102 16.8242 45.3398C16.2852 44.7695 15.5664 44.4844 14.668 44.4844C13.5898 44.4844 12.75 44.793 12.1484 45.4102C11.5547 46.0195 11.2578 46.8711 11.2578 47.9648H9.08984C9.08984 46.3945 9.59375 45.125 10.6016 44.1562C11.6172 43.1875 12.9727 42.7031 14.668 42.7031C16.2539 42.7031 17.5078 43.1211 18.4297 43.957C19.3516 44.7852 19.8125 45.8906 19.8125 47.2734C19.8125 48.9531 18.7422 50.9531 16.6016 53.2734L12.0312 58.2305H20.5977V60ZM31.4023 42.9258V44.7656H31.0039C29.3164 44.7969 27.9727 45.2969 26.9727 46.2656C25.9727 47.2344 25.3945 48.5977 25.2383 50.3555C26.1367 49.3242 27.3633 48.8086 28.918 48.8086C30.4023 48.8086 31.5859 49.332 32.4688 50.3789C33.3594 51.4258 33.8047 52.7773 33.8047 54.4336C33.8047 56.1914 33.3242 57.5977 32.3633 58.6523C31.4102 59.707 30.1289 60.2344 28.5195 60.2344C26.8867 60.2344 25.5625 59.6094 24.5469 58.3594C23.5312 57.1016 23.0234 55.4844 23.0234 53.5078V52.6758C23.0234 49.5352 23.6914 47.1367 25.0273 45.4805C26.3711 43.8164 28.3672 42.9648 31.0156 42.9258H31.4023ZM28.5547 50.6133C27.8125 50.6133 27.1289 50.8359 26.5039 51.2812C25.8789 51.7266 25.4453 52.2852 25.2031 52.957V53.7539C25.2031 55.1602 25.5195 56.293 26.1523 57.1523C26.7852 58.0117 27.5742 58.4414 28.5195 58.4414C29.4961 58.4414 30.2617 58.082 30.8164 57.3633C31.3789 56.6445 31.6602 55.7031 31.6602 54.5391C31.6602 53.3672 31.375 52.4219 30.8047 51.7031C30.2422 50.9766 29.4922 50.6133 28.5547 50.6133Z" fill="#F2F2F2"/>
<path fill-rule="evenodd" clip-rule="evenodd" d="M50.0178 89.4878C54.8783 93.5531 61.1388 96 67.9709 96L67.9714 136C50.0927 136 33.8256 129.1 21.6875 117.818L50.0178 89.4878Z" fill="#313130"/>
<path d="M41.5703 112.414H43.1992C44.2227 112.398 45.0273 112.129 45.6133 111.605C46.1992 111.082 46.4922 110.375 46.4922 109.484C46.4922 107.484 45.4961 106.484 43.5039 106.484C42.5664 106.484 41.8164 106.754 41.2539 107.293C40.6992 107.824 40.4219 108.531 40.4219 109.414H38.2539C38.2539 108.062 38.7461 106.941 39.7305 106.051C40.7227 105.152 41.9805 104.703 43.5039 104.703C45.1133 104.703 46.375 105.129 47.2891 105.98C48.2031 106.832 48.6602 108.016 48.6602 109.531C48.6602 110.273 48.418 110.992 47.9336 111.688C47.457 112.383 46.8047 112.902 45.9766 113.246C46.9141 113.543 47.6367 114.035 48.1445 114.723C48.6602 115.41 48.918 116.25 48.918 117.242C48.918 118.773 48.418 119.988 47.418 120.887C46.418 121.785 45.1172 122.234 43.5156 122.234C41.9141 122.234 40.6094 121.801 39.6016 120.934C38.6016 120.066 38.1016 118.922 38.1016 117.5H40.2812C40.2812 118.398 40.5742 119.117 41.1602 119.656C41.7461 120.195 42.5312 120.465 43.5156 120.465C44.5625 120.465 45.3633 120.191 45.918 119.645C46.4727 119.098 46.75 118.312 46.75 117.289C46.75 116.297 46.4453 115.535 45.8359 115.004C45.2266 114.473 44.3477 114.199 43.1992 114.184H41.5703V112.414ZM52.8906 113.445L53.7578 104.938H62.5V106.941H55.5977L55.082 111.594C55.918 111.102 56.8672 110.855 57.9297 110.855C59.4844 110.855 60.7188 111.371 61.6328 112.402C62.5469 113.426 63.0039 114.812 63.0039 116.562C63.0039 118.32 62.5273 119.707 61.5742 120.723C60.6289 121.73 59.3047 122.234 57.6016 122.234C56.0938 122.234 54.8633 121.816 53.9102 120.98C52.957 120.145 52.4141 118.988 52.2812 117.512H54.332C54.4648 118.488 54.8125 119.227 55.375 119.727C55.9375 120.219 56.6797 120.465 57.6016 120.465C58.6094 120.465 59.3984 120.121 59.9688 119.434C60.5469 118.746 60.8359 117.797 60.8359 116.586C60.8359 115.445 60.5234 114.531 59.8984 113.844C59.2812 113.148 58.457 112.801 57.4258 112.801C56.4805 112.801 55.7383 113.008 55.1992 113.422L54.625 113.891L52.8906 113.445Z" fill="#F2F2F2"/>
</svg>
