<svg width="51" height="56" viewBox="0 0 51 56" fill="none" xmlns="http://www.w3.org/2000/svg">
<path d="M5.9707 8.49999H3.4707V11V51V53.5H5.9707C20.154 53.5 33.3661 49.309 44.4269 42.0972L46.5991 40.6809L45.1044 38.562L22.0059 5.81747L20.6893 3.9511L18.7119 5.09413C14.9653 7.25981 10.6166 8.49999 5.9707 8.49999Z" fill="#B04341" stroke="#F2F2F2" stroke-width="5"/>
<path d="M14.4141 33.4453L15.2812 24.9375H24.0234V26.9414H17.1211L16.6055 31.5938C17.4414 31.1016 18.3906 30.8555 19.4531 30.8555C21.0078 30.8555 22.2422 31.3711 23.1562 32.4023C24.0703 33.4258 24.5273 34.8125 24.5273 36.5625C24.5273 38.3203 24.0508 39.707 23.0977 40.7227C22.1523 41.7305 20.8281 42.2344 19.125 42.2344C17.6172 42.2344 16.3867 41.8164 15.4336 40.9805C14.4805 40.1445 13.9375 38.9883 13.8047 37.5117H15.8555C15.9883 38.4883 16.3359 39.2266 16.8984 39.7266C17.4609 40.2188 18.2031 40.4648 19.125 40.4648C20.1328 40.4648 20.9219 40.1211 21.4922 39.4336C22.0703 38.7461 22.3594 37.7969 22.3594 36.5859C22.3594 35.4453 22.0469 34.5312 21.4219 33.8438C20.8047 33.1484 19.9805 32.8008 18.9492 32.8008C18.0039 32.8008 17.2617 33.0078 16.7227 33.4219L16.1484 33.8906L14.4141 33.4453Z" fill="#F2F2F2"/>
</svg>
